<svg width="180" height="37" fill="none" xmlns="http://www.w3.org/2000/svg"><g clip-path="url(#clip0)"><path d="M32.57 15.69H21.092v21.092H32.57V15.69z" fill="#4F37FD"/><path d="M47.33 0H26.236v10.546H47.33V0z" fill="#2CCD9A"/><path d="M21.093 5.142H.009V15.69h21.084V5.142z" fill="#4F37FD"/><path d="M158.406 12.003h-4.466v24.93h4.273V20.516h.193l8.474 16.417h.216l8.513-16.417h.176v16.417h4.213v-24.93h-4.087l-8.69 16.92h-.139l-8.676-16.92zm-96.774 24.93h4.273V15.72h11.16v-3.705H65.91v3.705H52.732v3.704h8.9v17.51zm37.242-24.93v3.345h8.036v21.594h4.273V15.348h8.034v-3.345H98.874zm43.838 19.079a2.025 2.025 0 01-1.299 2.008 2.021 2.021 0 01-.837.128h-9.26a2.02 2.02 0 01-2.136-2.136V12.003h-4.273V30.88c0 3.595 2.458 6.062 6.06 6.062h9.972c3.599 0 6.061-2.458 6.061-6.062V12.003h-4.288v19.079zm-52.521-4.168h-8.308l4.096-10.042h.144l4.068 10.042zM88.384 11.99h-4.413l-10.359 24.93h4.168l2.565-6.305H91.71l2.558 6.305h4.444l-10.327-24.93z" fill="#1C1E4F"/></g><defs><clipPath id="clip0"><path fill="#fff" d="M0 0h180v36.942H0z"/></clipPath></defs></svg>